# xmcd CD database file
#
# Track frame offsets:
#	150
#	18624
#	36673
#	54390
#	83650
#	101157
#	112814
#	131162
#	144137
#	162132
#	178453
#	194283
#	222496
#	234818
#
# Disc length: 3470 seconds
#
# Revision: 0
# Processed by: cddbd v1.5.2PL0 Copyright (c) Steve Scherf et al.
# Submitted via: CDex 1.70beta2
#
DISCID=c20d8c0e
DTITLE=Louis Van Dijk Trio - Gone With The Wind
DYEAR=1900
DGENRE=Jazz
TTITLE0=Tara's Theme
TTITLE1=From Foreign Lands And People
TTITLE2=Django
TTITLE3=Prelud Opus 28 Nr 4
TTITLE4=Nature Boy
TTITLE5=Selma Is Waltzing Around
TTITLE6=Pavane
TTITLE7=Allemande
TTITLE8=Anastasia
TTITLE9=Prelude
TTITLE10=With A Little Help From My Friends
TTITLE11=Et La Mer
TTITLE12=Bang Bang
TTITLE13=Siciliano
EXTD=
EXTT0=
EXTT1=
EXTT2=
EXTT3=
EXTT4=
EXTT5=
EXTT6=
EXTT7=
EXTT8=
EXTT9=
EXTT10=
EXTT11=
EXTT12=
EXTT13=
PLAYORDER=
